<mxfile host="65bd71144e">
    <diagram id="TO2DumFK3s1xUIpeRxgs" name="Page-1">
        <mxGraphModel dx="1070" dy="915" grid="1" gridSize="10" guides="1" tooltips="1" connect="1" arrows="1" fold="1" page="1" pageScale="1" pageWidth="827" pageHeight="1169" math="0" shadow="0">
            <root>
                <mxCell id="0"/>
                <mxCell id="1" parent="0"/>
                <mxCell id="O5kGJGylbeza2Zqbd8BH-1" value="Frontend" style="rounded=0;whiteSpace=wrap;html=1;dashed=1;align=left;verticalAlign=top;spacingLeft=5;" parent="1" vertex="1">
                    <mxGeometry x="44" y="245" width="300" height="340" as="geometry"/>
                </mxCell>
                <mxCell id="O5kGJGylbeza2Zqbd8BH-2" value="Backend" style="rounded=0;whiteSpace=wrap;html=1;dashed=1;align=left;verticalAlign=top;spacingLeft=5;" parent="1" vertex="1">
                    <mxGeometry x="394" y="245" width="390" height="340" as="geometry"/>
                </mxCell>
                <mxCell id="O5kGJGylbeza2Zqbd8BH-5" value="" style="group" parent="1" vertex="1" connectable="0">
                    <mxGeometry x="179" y="505" width="90" height="80" as="geometry"/>
                </mxCell>
                <mxCell id="O5kGJGylbeza2Zqbd8BH-3" value="" style="shape=datastore;whiteSpace=wrap;html=1;align=left;verticalAlign=top;" parent="O5kGJGylbeza2Zqbd8BH-5" vertex="1">
                    <mxGeometry x="15" width="60" height="60" as="geometry"/>
                </mxCell>
                <mxCell id="O5kGJGylbeza2Zqbd8BH-4" value="LocalStorage" style="text;html=1;align=center;verticalAlign=middle;resizable=0;points=[];autosize=1;strokeColor=none;fillColor=none;" parent="O5kGJGylbeza2Zqbd8BH-5" vertex="1">
                    <mxGeometry y="60" width="90" height="20" as="geometry"/>
                </mxCell>
                <mxCell id="O5kGJGylbeza2Zqbd8BH-6" value="" style="group" parent="1" vertex="1" connectable="0">
                    <mxGeometry x="676" y="405" width="95" height="80" as="geometry"/>
                </mxCell>
                <mxCell id="O5kGJGylbeza2Zqbd8BH-7" value="" style="shape=datastore;whiteSpace=wrap;html=1;align=left;verticalAlign=top;" parent="O5kGJGylbeza2Zqbd8BH-6" vertex="1">
                    <mxGeometry x="15" width="60" height="60" as="geometry"/>
                </mxCell>
                <mxCell id="O5kGJGylbeza2Zqbd8BH-8" value="MongoDBAtlas" style="text;html=1;align=center;verticalAlign=middle;resizable=0;points=[];autosize=1;strokeColor=none;fillColor=none;" parent="O5kGJGylbeza2Zqbd8BH-6" vertex="1">
                    <mxGeometry x="-5" y="60" width="100" height="20" as="geometry"/>
                </mxCell>
                <mxCell id="O5kGJGylbeza2Zqbd8BH-14" value="UI" style="rounded=0;whiteSpace=wrap;html=1;dashed=1;align=left;verticalAlign=top;spacingLeft=5;fillColor=none;" parent="1" vertex="1">
                    <mxGeometry x="104" y="275" width="120" height="170" as="geometry"/>
                </mxCell>
                <mxCell id="O5kGJGylbeza2Zqbd8BH-16" style="edgeStyle=orthogonalEdgeStyle;rounded=0;orthogonalLoop=1;jettySize=auto;html=1;endArrow=open;endFill=0;" parent="1" source="O5kGJGylbeza2Zqbd8BH-9" target="O5kGJGylbeza2Zqbd8BH-12" edge="1">
                    <mxGeometry relative="1" as="geometry"/>
                </mxCell>
                <mxCell id="O5kGJGylbeza2Zqbd8BH-9" value="Components" style="rounded=0;whiteSpace=wrap;html=1;align=center;verticalAlign=middle;" parent="1" vertex="1">
                    <mxGeometry x="116.5" y="375" width="95" height="60" as="geometry"/>
                </mxCell>
                <mxCell id="O5kGJGylbeza2Zqbd8BH-15" style="edgeStyle=orthogonalEdgeStyle;rounded=0;orthogonalLoop=1;jettySize=auto;html=1;entryX=0.5;entryY=0;entryDx=0;entryDy=0;endArrow=open;endFill=0;" parent="1" source="O5kGJGylbeza2Zqbd8BH-10" target="O5kGJGylbeza2Zqbd8BH-12" edge="1">
                    <mxGeometry relative="1" as="geometry"/>
                </mxCell>
                <mxCell id="O5kGJGylbeza2Zqbd8BH-10" value="Views" style="rounded=0;whiteSpace=wrap;html=1;align=center;verticalAlign=middle;" parent="1" vertex="1">
                    <mxGeometry x="116.5" y="305" width="95" height="60" as="geometry"/>
                </mxCell>
                <mxCell id="O5kGJGylbeza2Zqbd8BH-18" style="edgeStyle=orthogonalEdgeStyle;rounded=0;orthogonalLoop=1;jettySize=auto;html=1;entryX=0.5;entryY=0;entryDx=0;entryDy=0;endArrow=open;endFill=0;startArrow=none;startFill=0;" parent="1" source="O5kGJGylbeza2Zqbd8BH-11" target="O5kGJGylbeza2Zqbd8BH-3" edge="1">
                    <mxGeometry relative="1" as="geometry"/>
                </mxCell>
                <mxCell id="O5kGJGylbeza2Zqbd8BH-11" value="Store" style="rounded=0;whiteSpace=wrap;html=1;align=center;verticalAlign=middle;" parent="1" vertex="1">
                    <mxGeometry x="116.5" y="455" width="215" height="30" as="geometry"/>
                </mxCell>
                <mxCell id="O5kGJGylbeza2Zqbd8BH-24" style="edgeStyle=orthogonalEdgeStyle;rounded=0;orthogonalLoop=1;jettySize=auto;html=1;entryX=0;entryY=0.5;entryDx=0;entryDy=0;startArrow=open;startFill=0;endArrow=open;endFill=0;" parent="1" source="O5kGJGylbeza2Zqbd8BH-12" target="O5kGJGylbeza2Zqbd8BH-23" edge="1">
                    <mxGeometry relative="1" as="geometry"/>
                </mxCell>
                <mxCell id="O5kGJGylbeza2Zqbd8BH-12" value="WebSocket Client Gateway" style="rounded=0;whiteSpace=wrap;html=1;align=center;verticalAlign=middle;" parent="1" vertex="1">
                    <mxGeometry x="236.5" y="375" width="95" height="60" as="geometry"/>
                </mxCell>
                <mxCell id="O5kGJGylbeza2Zqbd8BH-19" style="edgeStyle=orthogonalEdgeStyle;rounded=0;orthogonalLoop=1;jettySize=auto;html=1;entryX=0.5;entryY=0;entryDx=0;entryDy=0;endArrow=open;endFill=0;" parent="1" edge="1">
                    <mxGeometry relative="1" as="geometry">
                        <mxPoint x="163.5" y="435" as="sourcePoint"/>
                        <mxPoint x="163.5" y="455" as="targetPoint"/>
                    </mxGeometry>
                </mxCell>
                <mxCell id="O5kGJGylbeza2Zqbd8BH-22" style="edgeStyle=orthogonalEdgeStyle;rounded=0;orthogonalLoop=1;jettySize=auto;html=1;entryX=0.5;entryY=0;entryDx=0;entryDy=0;endArrow=open;endFill=0;" parent="1" edge="1">
                    <mxGeometry relative="1" as="geometry">
                        <mxPoint x="283.5" y="435" as="sourcePoint"/>
                        <mxPoint x="283.5" y="455" as="targetPoint"/>
                    </mxGeometry>
                </mxCell>
                <mxCell id="O5kGJGylbeza2Zqbd8BH-33" style="edgeStyle=orthogonalEdgeStyle;rounded=0;orthogonalLoop=1;jettySize=auto;html=1;entryX=0;entryY=0.5;entryDx=0;entryDy=0;startArrow=none;startFill=0;endArrow=open;endFill=0;" parent="1" source="O5kGJGylbeza2Zqbd8BH-23" target="O5kGJGylbeza2Zqbd8BH-30" edge="1">
                    <mxGeometry relative="1" as="geometry">
                        <Array as="points">
                            <mxPoint x="514" y="405"/>
                            <mxPoint x="514" y="365"/>
                        </Array>
                    </mxGeometry>
                </mxCell>
                <mxCell id="O5kGJGylbeza2Zqbd8BH-34" style="edgeStyle=orthogonalEdgeStyle;rounded=0;orthogonalLoop=1;jettySize=auto;html=1;entryX=0;entryY=0.5;entryDx=0;entryDy=0;startArrow=none;startFill=0;endArrow=open;endFill=0;" parent="1" source="O5kGJGylbeza2Zqbd8BH-23" target="O5kGJGylbeza2Zqbd8BH-29" edge="1">
                    <mxGeometry relative="1" as="geometry">
                        <Array as="points">
                            <mxPoint x="514" y="405"/>
                            <mxPoint x="514" y="435"/>
                        </Array>
                    </mxGeometry>
                </mxCell>
                <mxCell id="O5kGJGylbeza2Zqbd8BH-35" style="edgeStyle=orthogonalEdgeStyle;rounded=0;orthogonalLoop=1;jettySize=auto;html=1;entryX=0;entryY=0.5;entryDx=0;entryDy=0;startArrow=none;startFill=0;endArrow=open;endFill=0;" parent="1" source="O5kGJGylbeza2Zqbd8BH-23" target="O5kGJGylbeza2Zqbd8BH-31" edge="1">
                    <mxGeometry relative="1" as="geometry">
                        <Array as="points">
                            <mxPoint x="514" y="405"/>
                            <mxPoint x="514" y="505"/>
                        </Array>
                    </mxGeometry>
                </mxCell>
                <mxCell id="O5kGJGylbeza2Zqbd8BH-23" value="WebSocket Server Gateway" style="rounded=0;whiteSpace=wrap;html=1;align=center;verticalAlign=middle;" parent="1" vertex="1">
                    <mxGeometry x="406.5" y="375" width="95" height="60" as="geometry"/>
                </mxCell>
                <mxCell id="O5kGJGylbeza2Zqbd8BH-28" value="Services" style="rounded=0;whiteSpace=wrap;html=1;dashed=1;align=left;verticalAlign=top;spacingLeft=5;fillColor=none;" parent="1" vertex="1">
                    <mxGeometry x="524" y="305" width="120" height="240" as="geometry"/>
                </mxCell>
                <mxCell id="O5kGJGylbeza2Zqbd8BH-32" style="edgeStyle=orthogonalEdgeStyle;rounded=0;orthogonalLoop=1;jettySize=auto;html=1;entryX=0;entryY=0.5;entryDx=0;entryDy=0;startArrow=none;startFill=0;endArrow=open;endFill=0;" parent="1" source="O5kGJGylbeza2Zqbd8BH-29" target="O5kGJGylbeza2Zqbd8BH-7" edge="1">
                    <mxGeometry relative="1" as="geometry"/>
                </mxCell>
                <mxCell id="O5kGJGylbeza2Zqbd8BH-29" value="DatabaseService" style="rounded=0;whiteSpace=wrap;html=1;align=center;verticalAlign=middle;" parent="1" vertex="1">
                    <mxGeometry x="536.5" y="405" width="95" height="60" as="geometry"/>
                </mxCell>
                <mxCell id="O5kGJGylbeza2Zqbd8BH-30" value="GameService" style="rounded=0;whiteSpace=wrap;html=1;align=center;verticalAlign=middle;" parent="1" vertex="1">
                    <mxGeometry x="536.5" y="335" width="95" height="60" as="geometry"/>
                </mxCell>
                <mxCell id="O5kGJGylbeza2Zqbd8BH-31" value="..." style="rounded=0;whiteSpace=wrap;html=1;align=center;verticalAlign=middle;" parent="1" vertex="1">
                    <mxGeometry x="536.5" y="475" width="95" height="60" as="geometry"/>
                </mxCell>
            </root>
        </mxGraphModel>
    </diagram>
</mxfile>